# xmcd
#
# Track frame offsets: 
#        150
#        11307
#        22702
#        35237
#        45222
#        57115
#        69552
#        80182
#        90720
#        102047
#        113577
#        125220
#        139177
#        150445
#        161570
#        172895
#        185720
#        198237
#        210982
#        222777
#        235267
#        246920
#        259482
#
# Disc length: 3618 seconds
#
# Revision: 1
# Processed by: cddbd v1.5.2PL0 Copyright (c) Steve Scherf et al.
# Submitted via: ExactAudioCopy v1.3
#
DISCID=340e2017
DTITLE=The Marvelettes - Compact Command Performances - 23 Greatest Hi
DTITLE=ts
DYEAR=1986
DGENRE=Soul
TTITLE0=Please, Mr. Postman
TTITLE1=Twistin' Postman
TTITLE2=Playboy
TTITLE3=Beechwood 4-5789
TTITLE4=Someday, Someway
TTITLE5=Strange I Know
TTITLE6=Locking Up My Heart
TTITLE7=Forever
TTITLE8=My Daddy Knows Best
TTITLE9=As Long As I Know He's Mine
TTITLE10=He's A Good Guy (Yes He Is)
TTITLE11=You're My Remedy
TTITLE12=Too Many Fish In The Sea
TTITLE13=I'll Keep Holding On
TTITLE14=Danger Heartbreak Dead Ahead
TTITLE15=Don't Mess With Bill
TTITLE16=You're The One
TTITLE17=The Hunter Gets Captured By The Game
TTITLE18=When You're Young And In Love
TTITLE19=The Day You Take One (You Have To Take The Other)
TTITLE20=My Baby Must Be A Magician
TTITLE21=Here I Am Baby
TTITLE22=Destination: Anywhere
EXTD=
EXTT0=
EXTT1=
EXTT2=
EXTT3=
EXTT4=
EXTT5=
EXTT6=
EXTT7=
EXTT8=
EXTT9=
EXTT10=
EXTT11=
EXTT12=
EXTT13=
EXTT14=
EXTT15=
EXTT16=
EXTT17=
EXTT18=
EXTT19=
EXTT20=
EXTT21=
EXTT22=
PLAYORDER=
